Coordinates
version=1
nRows=13
nColumns=34
inDegrees=yes

Units are S.I. units (second, meters, Newtons, ...)
If the header above contains a line with 'inDegrees', this indicates whether rotational values are in degrees (yes) or radians (no).

endheader
time	pelvis_tilt	pelvis_list	pelvis_rotation	pelvis_tx	pelvis_ty	pelvis_tz	hip_flexion_r	hip_adduction_r	hip_rotation_r	knee_angle_r	ankle_angle_r	subtalar_angle_r	mtp_angle_r	hip_flexion_l	hip_adduction_l	hip_rotation_l	knee_angle_l	ankle_angle_l	subtalar_angle_l	mtp_angle_l	lumbar_extension	lumbar_bending	lumbar_rotation	arm_flex_r	arm_add_r	arm_rot_r	elbow_flex_r	pro_sup_r	arm_flex_l	arm_add_l	arm_rot_l	elbow_flex_l	pro_sup_l
      4.45000000	    -22.81397520	      0.51668412	      0.77609021	      0.59641240	      0.59708947	     -0.10709269	     88.28454246	    -24.68391982	      0.99115481	     99.18980868	     38.57169133	      8.12645936	      0.00000000	     90.03102534	    -19.62041319	      2.98261457	     99.51982627	     38.04084923	     10.50482376	      0.00000000	    -38.60026011	      1.31840816	      5.09290079	    109.86576958	    -17.08669022	     32.31326193	    118.94262499	     99.13539041	    102.53747001	    -19.04220409	     24.83986063	    124.23697595	     90.82756096
      4.46666670	    -23.53177996	      0.59571027	      0.79147202	      0.58797924	      0.58549513	     -0.10713635	     90.97995914	    -24.56500947	      1.79510824	    100.20405254	     38.32351839	      7.87244383	      0.00000000	     92.78331654	    -19.24915889	      3.54350228	    100.93007305	     37.57419410	      9.90084969	      0.00000000	    -39.76460116	      1.47833015	      4.90800366	    112.54371879	    -17.49634794	     33.35832258	    118.19974286	     99.48608422	    105.14755054	    -19.16515429	     27.09515128	    123.57862412	     91.79507355
      4.48333330	    -23.77023770	      0.68217461	      0.63427498	      0.58037892	      0.57570868	     -0.10676547	     93.06605418	    -23.93298836	      2.74884322	    101.17093087	     38.12786824	      7.69855499	      0.00000000	     94.83707934	    -19.11685845	      4.05249799	    102.14038516	     37.45347270	      9.66799253	      0.00000000	    -41.25335589	      0.92093863	      5.10936016	    114.65793539	    -18.87660892	     33.43404853	    117.61203576	     99.99222927	    107.86413469	    -18.23882952	     29.01978525	    121.38898019	     94.82487610
      4.50000000	    -23.98966253	      0.84642979	      0.42523110	      0.57003851	      0.56796999	     -0.10739289	     95.15804945	    -23.16327029	      3.64342451	    101.86146237	     37.32345795	      6.79890141	      0.00000000	     96.75767654	    -18.78750098	      4.46460824	    103.13951856	     36.97472632	      9.27287140	      0.00000000	    -42.38577288	      0.77028145	      5.04169125	    116.41191548	    -18.79840945	     33.84491559	    115.16128237	    100.03774238	    109.49668766	    -17.94121022	     29.80283438	    119.62149767	     95.16940242
      4.51666670	    -24.21395814	      0.97254670	      0.21706995	      0.56828747	      0.56052691	     -0.10698836	     96.76385439	    -22.48201102	      4.37926663	    102.58258980	     37.31001402	      6.07651027	      0.00000000	     98.24985054	    -18.60984678	      4.92339691	    104.00668190	     36.89033785	      8.99952082	      0.00000000	    -43.27740484	      0.63507389	      5.08071489	    117.62958327	    -18.92544239	     34.51031166	    113.41489467	    100.00936229	    110.55974485	    -17.82178402	     30.95600544	    117.92636352	     95.53069158
      4.53333330	    -24.61491243	      1.15482605	      0.18841659	      0.57139674	      0.55625100	     -0.10726895	     97.89592746	    -22.09578310	      5.14052511	    103.19114925	     37.50209696	      6.20254082	      0.00000000	     99.44054850	    -18.56869781	      5.14274124	    104.84645854	     36.63726819	      9.10800699	      0.00000000	    -43.54448995	      0.68491243	      4.96668417	    117.64206873	    -18.85644993	     35.01676282	    112.53577216	     99.93972780	    110.57991290	    -17.64333551	     31.52690355	    115.80052011	     95.68864540
      4.55000000	    -24.95517409	      1.33108326	      0.10925633	      0.57059522	      0.56051302	     -0.10939576	     98.34238339	    -21.70237906	      5.55511578	    103.14198874	     36.81628043	      5.15586754	      0.00000000	     99.69404902	    -18.51939219	      4.81785614	    104.76835977	     36.13764676	      8.66215870	      0.00000000	    -43.85226443	      0.61029018	      4.79717247	    116.49327323	    -19.17466245	     35.25184416	    111.80354478	     99.85598962	    109.66856016	    -17.52575895	     32.22453008	    114.23958263	     95.77909785
      4.56666670	    -25.33772894	      1.56379665	     -0.15008140	      0.57204135	      0.55882000	     -0.11646507	     98.76202606	    -21.51585327	      6.09211811	    102.91434348	     36.54149025	      5.14991710	      0.00000000	     99.82493777	    -18.53153879	      4.19729745	    104.82227712	     36.13468198	      8.42159039	      0.00000000	    -43.37461290	      0.58392187	      4.64206465	    114.35063768	    -19.77170574	     35.26289808	    110.85558493	     99.67798466	    108.22893543	    -17.10431273	     32.92138303	    111.92162315	     95.81584153
      4.58333330	    -25.75109487	      1.75711586	     -0.32599320	      0.57201456	      0.56220033	     -0.11804349	     98.95923831	    -21.54914940	      6.35483493	    102.47918545	     35.77676908	      4.41723457	      0.00000000	     99.50967951	    -18.52631579	      3.47282883	    104.36911418	     36.13586504	      8.18245493	      0.00000000	    -43.01406021	      0.61570762	      4.33025872	    112.40359948	    -20.30776762	     35.73425918	    110.19875674	     99.49463979	    106.82548136	    -16.94329120	     33.87893822	    109.89130686	     95.78637019
      4.60000000	    -25.56342996	      1.99819653	     -0.60169359	      0.56687007	      0.56871164	     -0.12105966	     98.38377590	    -21.59338299	      6.39731475	    101.29870017	     34.89417884	      4.41424070	      0.00000000	     98.63117034	    -18.44353247	      2.55811280	    103.51940033	     35.65750698	      7.68298386	      0.00000000	    -43.03150003	      0.56112597	      3.89834275	    110.42895855	    -20.66571733	     36.44597196	    108.55873584	     99.22802102	    105.68972288	    -16.61905065	     34.71126966	    106.21341024	     95.60473283
      4.61666670	    -24.91656772	      2.07879698	     -0.78656866	      0.56222068	      0.57470237	     -0.11977109	     97.29835954	    -21.41594809	      6.24900230	    100.09341517	     34.30803987	      4.36530648	      0.00000000	     97.24329097	    -18.46784189	      1.85836944	    102.37854125	     35.15099060	      7.20732406	      0.00000000	    -42.34710546	      0.36591867	      2.86374519	    103.84033533	    -19.76427022	     34.53524731	    105.69383932	     98.46860536	    102.12559974	    -15.51727801	     33.40551886	    101.47645919	     94.62833743
      4.63333330	    -24.88761497	      2.12317541	     -1.06686121	      0.56894501	      0.58157224	     -0.12266468	     96.55680594	    -21.20372536	      5.94977760	     98.96843254	     33.55224165	      3.85892063	      0.00000000	     96.09724524	    -18.55625484	      1.31538417	    101.22623264	     34.88819367	      6.70405207	      0.00000000	    -41.42163207	      0.29095767	      2.05566400	     99.59275010	    -19.44683875	     34.79763771	    104.78041314	     97.92120112	     99.52566604	    -16.33634547	     32.67706113	     98.16101212	     93.91451762
      4.65000000	    -24.87800009	      2.13500866	     -1.43203409	      0.56721583	      0.59013798	     -0.12324926	     95.72577134	    -20.77462709	      5.55804103	     97.75630768	     32.58346487	      2.91022942	      0.00000000	     94.94659382	    -18.70911946	      0.83285175	     99.90070774	     34.56532697	      6.17710207	      0.00000000	    -40.73786731	     -0.09273472	      0.93330566	     94.54206874	    -18.76469581	     33.06756634	    103.27912982	     96.24533298	     98.45458642	    -17.84151874	     35.25030936	     95.16834956	     91.62791380
